<?xml version="1.0" standalone="no"?>
<!DOCTYPE svg PUBLIC "-//W3C//DTD SVG 20010904//EN"
 "http://www.w3.org/TR/2001/REC-SVG-20010904/DTD/svg10.dtd">
<svg version="1.0" xmlns="http://www.w3.org/2000/svg"
 width="265.000000pt" height="265.000000pt" viewBox="0 0 265.000000 265.000000"
 preserveAspectRatio="xMidYMid meet">
<metadata>
Created by potrace 1.14, written by Peter Selinger 2001-2017
</metadata>
<g transform="translate(0.000000,265.000000) scale(0.100000,-0.100000)"
fill="#000000" stroke="none">
<path d="M1200 2322 c0 -5 -7 -17 -16 -28 -8 -10 -13 -14 -10 -8 7 14 -42 16
-50 2 -4 -6 -10 -5 -15 3 -7 11 -10 9 -15 -8 -3 -12 -13 -24 -21 -27 -8 -4
-11 -2 -7 5 5 8 1 8 -13 0 -11 -6 -23 -7 -27 -4 -5 6 -10 -12 -7 -29 0 -5 -8
-8 -20 -8 -11 0 -17 -4 -14 -10 3 -5 1 -10 -5 -10 -6 0 -8 -5 -5 -10 4 -6 3
-10 -2 -9 -19 3 -33 -2 -33 -12 0 -5 6 -7 13 -3 6 4 3 -3 -8 -16 -11 -13 -14
-20 -8 -16 9 5 11 2 7 -8 -5 -14 -16 -19 -34 -18 -3 0 -5 -42 -5 -93 0 -68 3
-91 11 -84 7 6 16 3 25 -8 12 -15 12 -16 -1 -8 -12 6 -13 5 -2 -6 6 -7 12 -17
12 -22 0 -4 -6 -5 -12 -1 -7 4 2 -7 20 -24 17 -17 32 -37 32 -44 0 -10 3 -9 9
1 8 12 11 9 16 -12 4 -15 11 -25 15 -22 12 7 33 -23 25 -36 -5 -8 -1 -9 14 -4
18 5 21 2 21 -19 0 -35 -10 -56 -27 -56 -9 0 -11 5 -7 13 4 6 -2 4 -13 -6 -18
-16 -22 -16 -33 -2 -12 15 -35 11 -25 -5 3 -5 -6 -17 -20 -28 -14 -11 -25 -25
-25 -31 0 -10 -14 -15 -33 -12 -4 1 -7 -7 -5 -16 2 -10 -2 -17 -10 -15 -7 1
-17 -9 -22 -23 -5 -14 -12 -25 -15 -25 -4 0 -3 6 0 13 4 6 -3 0 -15 -16 -12
-15 -27 -24 -33 -20 -7 3 -9 3 -5 -2 4 -4 3 -14 -3 -21 -7 -8 -7 -14 1 -19 8
-5 8 -11 -1 -21 -9 -11 -9 -14 1 -14 9 0 10 -3 1 -13 -6 -8 -8 -17 -5 -20 4
-4 -3 -4 -15 -2 -12 2 -19 0 -16 -5 3 -5 1 -12 -5 -15 -8 -5 -7 -11 1 -21 9
-11 8 -18 -2 -31 -12 -15 -12 -16 1 -8 13 7 13 6 2 -7 -9 -11 -9 -17 -2 -20 6
-2 8 -11 4 -21 -3 -10 -12 -16 -18 -14 -12 5 -17 -18 -19 -80 0 -18 -2 -31 -5
-29 -2 2 -12 -3 -22 -11 -14 -12 -16 -23 -10 -49 5 -20 4 -34 -2 -34 -5 0 -6
-4 -3 -10 3 -5 -3 -10 -15 -10 -17 0 -19 -5 -15 -30 4 -22 1 -30 -10 -30 -14
0 -19 -12 -16 -33 0 -4 -4 -7 -10 -7 -6 0 -8 -9 -4 -20 3 -11 2 -20 -2 -20 -5
0 -18 -7 -29 -16 -10 -8 -12 -13 -4 -9 8 4 6 -1 -4 -9 -16 -13 -22 -13 -28 -3
-6 9 -8 9 -8 -2 0 -11 -3 -11 -15 -1 -8 7 -15 8 -15 3 0 -11 -42 -9 -59 2 -6
3 -11 2 -11 -2 0 -5 -16 -7 -35 -5 -19 2 -35 7 -35 11 0 4 -7 16 -16 27 -8 10
-13 13 -9 7 4 -9 -1 -13 -15 -13 -14 0 -19 4 -14 13 5 8 2 8 -9 -2 -9 -7 -17
-10 -17 -6 0 4 -8 1 -17 -6 -11 -10 -14 -10 -9 -1 12 20 -22 14 -43 -7 -11
-11 -17 -21 -15 -24 3 -2 -9 -4 -26 -3 -16 1 -30 5 -30 10 0 5 -6 3 -14 -3
-11 -9 -15 -9 -19 1 -4 8 -6 9 -6 1 -1 -6 -10 -9 -23 -5 -17 4 -20 2 -15 -11
4 -10 0 -18 -12 -22 -10 -3 -28 -16 -40 -29 -18 -19 -22 -33 -19 -72 2 -31 8
-49 16 -49 6 0 12 -4 13 -10 1 -5 6 -19 11 -29 9 -16 8 -18 -8 -12 -18 6 -18
5 0 -9 10 -8 23 -12 29 -8 6 3 7 2 4 -4 -7 -11 28 -44 38 -35 3 4 3 -1 0 -10
-7 -18 8 -26 48 -24 22 1 27 -2 24 -16 -3 -10 -1 -16 4 -12 5 3 9 0 9 -6 0 -6
4 -9 9 -6 4 3 13 -5 18 -17 8 -18 18 -23 45 -22 28 1 34 -2 31 -15 -3 -13 3
-16 34 -15 21 0 41 -4 45 -10 5 -6 8 -5 8 4 0 11 3 11 15 1 12 -10 15 -10 15
0 0 10 3 10 15 0 8 -7 12 -17 8 -23 -3 -6 -1 -7 5 -3 7 4 12 3 12 -3 0 -11 19
-9 39 3 9 6 12 5 7 -2 -4 -7 1 -10 14 -9 11 1 20 6 20 12 0 6 3 5 8 -1 4 -7
16 -12 27 -12 43 1 55 -3 55 -17 0 -13 32 -15 253 -13 195 2 251 6 249 16 -2
13 -2 13 43 15 17 1 36 6 44 11 10 6 12 6 7 -2 -4 -7 5 -10 30 -7 45 4 64 -2
64 -21 0 -12 44 -14 254 -14 231 0 254 2 252 17 -1 13 9 17 59 17 33 1 66 5
74 10 10 6 12 5 7 -2 -8 -13 4 -15 28 -6 9 3 14 10 11 14 -10 16 18 23 81 22
36 0 67 4 70 10 5 7 2 8 -7 3 -12 -7 -11 -6 0 9 11 13 23 16 43 12 18 -3 27
-2 23 4 -3 6 -1 10 5 10 7 0 10 6 7 14 -4 11 0 13 15 11 11 -3 18 -2 14 2 -3
4 1 15 10 25 14 15 20 16 32 5 13 -9 14 -9 8 1 -4 6 -2 12 3 12 6 0 11 -6 11
-12 1 -7 7 2 15 20 8 17 17 32 20 32 3 0 3 -6 0 -12 -4 -7 0 -4 9 6 8 10 13
23 10 28 -3 5 -2 8 3 7 18 -3 36 1 30 8 -4 3 -1 13 6 21 9 13 9 14 0 8 -7 -4
-13 -4 -13 1 0 14 14 29 32 36 12 4 15 14 12 33 -7 37 -14 46 -30 40 -15 -6
-15 15 1 26 6 5 5 8 -4 8 -7 0 -11 6 -7 15 5 13 -5 20 -27 16 -4 0 -6 2 -6 6
4 26 -5 30 -71 30 -39 0 -74 4 -78 8 -4 5 0 5 8 1 8 -4 6 0 -5 9 -11 9 -19 21
-17 27 2 7 -3 6 -12 -2 -9 -7 -16 -9 -16 -5 0 4 -8 1 -17 -6 -9 -8 -14 -9 -10
-3 4 7 -3 14 -18 16 -13 3 -22 1 -19 -4 7 -11 -35 -6 -55 6 -9 6 -12 5 -7 -2
3 -6 2 -13 -4 -17 -6 -4 -7 -11 -4 -17 4 -7 2 -8 -4 -4 -7 4 -12 3 -12 -3 0
-10 -31 -7 -50 4 -6 3 -10 3 -10 -2 0 -4 -24 -8 -54 -8 -39 0 -52 3 -49 13 3
6 0 12 -7 12 -6 0 -8 5 -5 10 3 6 -3 10 -14 10 -24 0 -26 12 -10 42 8 15 8 19
0 14 -6 -4 -11 -2 -11 4 0 7 -7 9 -16 6 -8 -3 -12 -2 -9 4 3 6 2 10 -4 10 -6
0 -8 6 -5 14 9 23 -14 56 -34 50 -10 -4 -13 -2 -7 3 10 8 15 72 5 71 -33 -2
-36 3 -34 67 3 63 2 66 -24 77 -15 6 -22 12 -17 14 18 7 5 115 -16 138 -12 12
-18 29 -15 41 8 30 -4 71 -15 53 -7 -10 -9 -11 -9 0 0 7 -5 10 -12 6 -7 -4 -8
-3 -4 5 4 6 -16 33 -51 67 -32 30 -57 60 -55 66 1 5 -1 7 -5 5 -5 -3 -17 1
-28 9 -10 8 -13 14 -6 14 7 0 9 5 6 10 -5 8 -12 7 -23 -2 -9 -7 -13 -8 -9 -2
4 7 -3 14 -18 16 -15 3 -22 1 -18 -5 4 -6 -2 -8 -15 -5 -17 5 -22 2 -22 -12 0
-11 -5 -22 -12 -26 -7 -5 -8 -3 -3 6 6 10 4 12 -8 7 -19 -7 -27 10 -20 45 3
18 10 25 20 21 9 -4 16 2 20 16 5 20 15 26 37 22 5 -1 3 6 -5 15 -12 16 -12
17 4 11 10 -4 17 -2 17 6 0 15 36 48 44 40 3 -4 6 1 6 10 0 9 7 17 17 17 9 0
13 3 10 7 -4 3 -2 12 4 19 6 8 9 19 6 26 -2 7 2 19 9 26 11 10 14 10 14 1 0
-24 13 1 16 31 2 19 -1 30 -9 30 -8 0 -9 3 -1 8 27 18 3 135 -24 118 -12 -7
-9 37 2 46 6 4 -2 12 -17 19 -15 7 -27 18 -27 24 0 7 -7 18 -15 25 -13 11 -15
10 -12 -1 2 -8 -1 -4 -7 9 -6 12 -15 21 -22 18 -6 -2 -17 1 -24 7 -10 9 -11 9
-6 0 5 -9 2 -11 -9 -7 -9 4 -14 13 -11 21 3 8 1 11 -4 8 -6 -3 -10 -2 -10 3 0
5 -13 9 -30 9 -16 0 -27 -5 -23 -10 10 -17 -21 5 -35 25 -13 18 -42 25 -42 10z
m-1150 -1536 c0 -2 -8 -10 -17 -17 -16 -13 -17 -12 -4 4 13 16 21 21 21 13z"/>
<path d="M2613 1003 c1 -10 7 -24 11 -32 6 -10 5 -12 -3 -7 -8 5 -11 -1 -9
-21 1 -20 8 -29 20 -30 15 -2 18 6 18 53 0 47 -2 54 -20 54 -13 0 -19 -6 -17
-17z"/>
</g>
</svg>
